<svg width="128" height="33" viewBox="0 0 128 33" fill="none" xmlns="http://www.w3.org/2000/svg">
<path d="M28.9485 2.44527C29.1351 2.51097 29.2977 2.63115 29.4152 2.79026C29.5327 2.94937 29.5998 3.14008 29.6078 3.33774C29.7092 4.39325 29.7524 5.45354 29.7372 6.5138C29.7261 7.0002 29.7149 7.48659 29.6825 7.97298C29.4996 7.89712 29.3267 7.82126 29.1426 7.74986C28.6785 7.56691 28.2245 7.394 27.7593 7.23113C27.7705 6.98347 27.7816 6.74584 27.7816 6.49707C27.7917 5.70835 27.7705 4.90848 27.7058 4.09856C26.9494 3.86094 26.1607 3.64452 25.363 3.45041C24.359 3.21279 23.355 3.01757 22.3376 2.87701C21.7653 2.80226 21.2142 2.73644 20.6854 2.68289C20.1566 2.62934 19.5932 2.59699 19.0209 2.57133C18.5747 2.56017 18.1564 2.55013 17.7034 2.55013L17.0442 2.56018C16.8489 2.56018 16.6225 2.57133 16.3848 2.57133C15.8125 2.59364 15.2614 2.63603 14.7204 2.68289C14.1793 2.72974 13.6405 2.80226 13.0682 2.87701C12.0642 3.01757 11.0479 3.21168 10.0427 3.45041C9.24286 3.64452 8.4653 3.86094 7.70001 4.09856C7.56837 5.87443 7.61549 7.65902 7.8406 9.42547C7.96006 10.4136 8.13322 11.3946 8.35934 12.3639C8.48874 12.915 8.64046 13.4661 8.80557 13.9949L8.81674 14.0384L8.82676 14.0819L8.83793 14.1254L8.85912 14.1678L8.87028 14.2113L8.88139 14.2548L8.89256 14.2983L8.93494 14.4166V14.4277L8.94611 14.4701L9.02199 14.6754L9.03201 14.7189L9.09787 14.8918L9.10789 14.9242C9.44157 15.8916 9.82778 16.8402 10.2648 17.7656L10.286 17.7979L10.2971 17.8314L10.3071 17.8526L10.3294 17.8849L10.3395 17.9173L10.3507 17.9496L10.3719 17.9708C10.5347 18.3055 10.7065 18.6402 10.8806 18.9749C11.01 19.1913 11.1282 19.4211 11.2475 19.623C11.3881 19.8722 11.5179 20.0882 11.6369 20.2712C12.0039 20.8658 12.3922 21.4492 12.8038 22.0115C13.2155 22.5737 13.6349 23.1137 14.1001 23.6536C14.2734 23.8589 14.4679 24.0749 14.6836 24.3018C14.8888 24.5249 15.0829 24.748 15.267 24.9388C15.7423 25.4252 16.2387 25.8904 16.7362 26.3433L16.9415 26.5162C16.8009 26.6278 16.6604 26.7393 16.5098 26.8509C16.1205 27.142 15.7211 27.4232 15.3206 27.7043C13.1619 25.7691 11.3047 23.522 9.81068 21.0376V21.0264L9.79952 21.0164L9.78841 21.0052C9.70251 20.8647 9.62661 20.7241 9.55075 20.6058C9.42134 20.3682 9.28078 20.1295 9.16252 19.903C8.80554 19.2549 8.48094 18.5855 8.16858 17.8827C7.85621 17.1799 7.58513 16.4893 7.33636 15.7977C6.98884 14.82 6.69313 13.8246 6.45054 12.8157C5.71657 9.71175 5.49765 6.50826 5.80243 3.33328C5.81157 3.13533 5.88037 2.94477 5.99984 2.78668C6.1193 2.62858 6.28385 2.51034 6.47178 2.4475C7.49812 2.10167 8.54675 1.79935 9.60543 1.53942C10.6429 1.3018 11.7116 1.09319 12.8038 0.934772C13.3616 0.858913 13.9484 0.79421 14.5642 0.740662C15.1588 0.685999 15.7423 0.643606 16.3146 0.621294C16.531 0.621294 16.7608 0.610141 17.0062 0.610141L17.709 0.600098L18.4107 0.610141C18.6595 0.610141 18.8971 0.621294 19.1024 0.621294C19.6858 0.643606 20.2693 0.685999 20.8639 0.740662C21.4797 0.79421 22.0631 0.858913 22.6142 0.934772C23.7153 1.09653 24.7852 1.3018 25.8227 1.53942C26.8713 1.79935 27.9188 2.09721 28.9563 2.4475L28.9485 2.44527ZM22.6165 22.0126C23.0058 21.4615 23.3974 20.897 23.751 20.3158C23.8731 20.0966 24.0733 19.9315 24.3117 19.8533C24.5501 19.7752 24.8092 19.7897 25.0373 19.8941C26.9148 20.7915 28.6191 22.0132 30.0719 23.503C30.2419 23.6597 30.3512 23.8713 30.3808 24.1005C30.4104 24.3298 30.3583 24.5622 30.2337 24.7569C29.9314 25.2322 29.5967 25.7286 29.262 26.215C28.9274 26.7014 28.5592 27.1766 28.2033 27.6307C27.9434 27.9653 27.6622 28.3112 27.3599 28.657C27.1011 28.9593 26.8088 29.294 26.4853 29.651C26.0313 30.1485 25.5929 30.6015 25.1466 31.0444H25.1355C24.7037 31.4772 24.243 31.8989 23.7633 32.3195C23.6218 32.4573 23.4422 32.5496 23.2477 32.5844C23.0533 32.6192 22.8528 32.5949 22.6722 32.5147C21.2501 31.8618 19.8809 31.0995 18.5769 30.2344C18.7499 30.105 18.9228 29.9756 19.0957 29.8351C19.4627 29.5428 19.8309 29.2516 20.1756 28.9426C21.0568 29.5027 21.9697 30.0111 22.9098 30.4654C23.201 30.1954 23.4821 29.9254 23.7744 29.6443C24.2274 29.1981 24.6491 28.7697 25.0384 28.3368C25.2972 28.0669 25.5672 27.7433 25.8706 27.3975C26.1294 27.084 26.3994 26.7594 26.6594 26.4147C27.0152 25.9818 27.3398 25.5389 27.6533 25.0849C27.8262 24.8618 27.988 24.6097 28.1498 24.372C27.6635 23.9058 27.1433 23.4763 26.5935 23.0869C26.0728 22.7093 25.528 22.3661 24.9626 22.0594C24.7138 22.4376 24.4549 22.8058 24.195 23.1616C23.7421 23.7886 23.2769 24.3721 22.8017 24.9343C22.5852 25.182 22.38 25.4095 22.1859 25.626C22.0989 25.7375 22.0018 25.8312 21.9047 25.9383L21.8936 25.9495L21.8835 25.9606L21.8724 25.9707L21.8612 25.9818L21.8512 25.993L21.84 26.0041L21.8289 26.0142L21.8077 26.0365V26.0465C20.776 27.1332 19.6676 28.1443 18.491 29.072C16.713 30.4372 14.7842 31.5938 12.7425 32.5192C12.5569 32.6024 12.3501 32.6263 12.1504 32.5875C11.9507 32.5488 11.7679 32.4493 11.6269 32.3027C11.1505 31.8922 10.7076 31.4705 10.2648 31.0488C9.81853 30.6171 9.37899 30.1563 8.92606 29.6554C8.59139 29.2985 8.30017 28.9638 8.04024 28.6615C7.74907 28.3156 7.46797 27.9698 7.198 27.6351C6.84101 27.171 6.49519 26.7059 6.14936 26.2195C5.80353 25.7331 5.48002 25.2366 5.17769 24.7614C4.93896 24.3832 4.69126 23.9805 4.44249 23.5621C4.21937 23.1516 3.98844 22.7411 3.77314 22.335C3.49312 21.8162 3.23321 21.2864 2.98444 20.7576C2.73566 20.2288 2.52036 19.6978 2.2939 19.1467C1.88337 18.1426 1.52639 17.1163 1.21291 16.0677C0.899428 15.019 0.640612 13.9614 0.431998 12.8916C0.391388 12.6945 0.413299 12.4897 0.494696 12.3057C0.576092 12.1217 0.712893 11.9677 0.886021 11.8653C2.14392 10.9711 3.46952 10.1763 4.85081 9.48795C4.90435 10.0067 4.97016 10.5143 5.05606 11.0219C5.07725 11.1948 5.10961 11.3677 5.14196 11.5406C4.22497 12.0202 3.33762 12.5544 2.48466 13.1404C2.65758 13.9503 2.86283 14.739 3.0893 15.5065C3.38158 16.5005 3.72745 17.4722 4.10563 18.407C4.3109 18.9146 4.5262 19.4222 4.76382 19.9298C5.00143 20.4374 5.24015 20.9338 5.49897 21.4102C5.70423 21.8107 5.92068 22.1911 6.1371 22.5771C6.35241 22.9341 6.58333 23.3123 6.82764 23.7116C7.13108 24.1869 7.43338 24.6521 7.74686 25.0838C8.06033 25.5155 8.39503 25.9763 8.74086 26.4136C9.01083 26.7583 9.26966 27.0829 9.53963 27.3964C9.83191 27.7422 10.113 28.0657 10.3607 28.3357C10.7612 28.7686 11.1818 29.2003 11.6358 29.6432C11.9169 29.9243 12.2092 30.1943 12.4892 30.4542C14.1149 29.6722 15.6571 28.7273 17.0921 27.634C19.1953 26.0391 21.0551 24.1466 22.6131 22.0159L22.6165 22.0126ZM34.5131 11.8608C34.6856 11.9644 34.8224 12.1181 34.9054 12.3015C34.9883 12.4849 35.0133 12.6892 34.9772 12.8871C34.7607 13.957 34.5019 15.0157 34.1884 16.0632C33.8749 17.1107 33.5191 18.1382 33.1186 19.1422C33.078 19.2424 33.0193 19.3342 32.9456 19.4133C32.7761 19.6098 32.5361 19.7317 32.2774 19.7526C32.0187 19.7735 31.7623 19.6916 31.5635 19.5248C30.8334 18.8894 30.0607 18.3045 29.2509 17.7745C28.4551 17.2539 27.6246 16.7884 26.7653 16.3811C26.5399 16.2795 26.3607 16.0972 26.2629 15.8701C26.165 15.6431 26.1557 15.3876 26.2366 15.154C26.5597 14.2448 26.8301 13.3177 27.0464 12.3773C27.1435 12.0103 27.2194 11.6421 27.2952 11.2617C27.544 11.3588 27.7816 11.457 28.0304 11.564C28.3974 11.7269 28.7644 11.8987 29.1315 12.0727C29.0779 12.3316 29.0199 12.5803 28.9586 12.8291C28.7868 13.5531 28.5916 14.2794 28.3651 14.99C29.0344 15.3358 29.6937 15.7241 30.3307 16.1346C30.8171 16.4592 31.3035 16.8039 31.7687 17.1609C31.9628 16.621 32.1469 16.0699 32.3086 15.5087C32.5463 14.7412 32.7404 13.9469 32.9244 13.1426C31.5066 12.1731 29.9975 11.3444 28.4186 10.6682C27.4462 10.2479 26.4506 9.8833 25.4367 9.57607C24.5102 9.29627 23.5686 9.06908 22.6165 8.89557C21.9471 8.77732 21.2555 8.68026 20.5526 8.6044C19.8498 8.52854 19.1593 8.48504 18.4676 8.46384L18.0794 8.45269H17.3231L16.9449 8.46384C16.2532 8.48504 15.5504 8.52854 14.8587 8.6044C14.167 8.68026 13.4654 8.77732 12.7848 8.89557C11.8444 9.06849 10.9051 9.3061 9.96462 9.57607C9.60764 9.68763 9.25178 9.7992 8.89479 9.92191C8.86244 9.71665 8.83009 9.52253 8.80889 9.31726C8.74419 8.85318 8.69736 8.39914 8.66836 7.93394C11.5834 6.97015 14.6343 6.48051 17.7046 6.48368C21.5023 6.48889 25.2631 7.22991 28.779 8.66577C30.8067 9.51066 32.7315 10.5837 34.5164 11.8641L34.5131 11.8608ZM16.512 20.4073C16.3503 20.202 16.2097 20.0179 16.0803 19.8562C15.0522 18.4487 14.1792 16.9342 13.4765 15.3392C13.3795 15.1239 13.2813 14.9075 13.1954 14.691C13.1095 14.4746 13.0437 14.2916 12.9723 14.0864C12.9414 14.015 12.9196 13.9401 12.9076 13.8633C12.8845 13.7362 12.887 13.6058 12.9149 13.4798C12.9428 13.3537 12.9955 13.2344 13.07 13.1289C13.1444 13.0234 13.2391 12.9338 13.3486 12.8653C13.458 12.7968 13.58 12.7507 13.7074 12.7298C13.9127 12.6863 14.1536 12.654 14.3991 12.6183L15.1008 12.5201C15.5336 12.4777 15.9654 12.4454 16.4083 12.4085C16.8511 12.3717 17.3007 12.3762 17.7057 12.3762C18.1106 12.3762 18.5479 12.3862 19.012 12.4085C19.4582 12.4409 19.8878 12.4732 20.3095 12.5201L21.0111 12.6183C21.2711 12.6506 21.4976 12.683 21.714 12.7298C21.7691 12.7387 21.8233 12.7529 21.8757 12.7722C22.1202 12.8605 22.3199 13.0418 22.4313 13.2767C22.5427 13.5116 22.5567 13.781 22.4703 14.0261C22.3833 14.2493 22.2974 14.4791 22.2104 14.6955C22.1234 14.9119 22.0375 15.1283 21.9404 15.3436C21.5894 16.1387 21.1962 16.9144 20.7624 17.6674C20.3265 18.4258 19.8468 19.1582 19.3255 19.8606C19.1634 20.0756 19.0232 20.2593 18.9049 20.4117C18.7208 20.6348 18.5803 20.8223 18.4587 20.9517C18.4206 21 18.3768 21.0434 18.3282 21.0811C18.2301 21.1638 18.1164 21.2261 17.994 21.2643C17.8715 21.3026 17.7427 21.3162 17.615 21.3041C17.4872 21.2921 17.3631 21.2547 17.25 21.1942C17.1369 21.1337 17.037 21.0512 16.956 20.9517C16.7943 20.7676 16.6537 20.5947 16.5098 20.4117L16.512 20.4073Z" fill="#D8DDE2"/>
<path d="M45.4711 14.6449C46.1623 13.5697 47.3783 13.0321 49.1191 13.0321V15.3169C48.9143 15.2785 48.7287 15.2593 48.5623 15.2593C47.6279 15.2593 46.8983 15.5345 46.3735 16.0849C45.8487 16.6225 45.5863 17.4033 45.5863 18.4273V23.4001H43.1863V13.1473H45.4711V14.6449Z" fill="#D8DDE2"/>
<path d="M60.6997 18.3313C60.6997 18.4977 60.6869 18.7345 60.6613 19.0417H52.6165C52.7573 19.7969 53.1221 20.3985 53.7109 20.8465C54.3125 21.2817 55.0549 21.4993 55.9381 21.4993C57.0645 21.4993 57.9925 21.1281 58.7221 20.3857L60.0085 21.8641C59.5477 22.4145 58.9653 22.8305 58.2613 23.1121C57.5573 23.3937 56.7637 23.5345 55.8805 23.5345C54.7541 23.5345 53.7621 23.3105 52.9045 22.8625C52.0469 22.4145 51.3813 21.7937 50.9077 21.0001C50.4469 20.1937 50.2165 19.2849 50.2165 18.2737C50.2165 17.2753 50.4405 16.3793 50.8885 15.5857C51.3493 14.7793 51.9829 14.1521 52.7893 13.7041C53.5957 13.2561 54.5045 13.0321 55.5157 13.0321C56.5141 13.0321 57.4037 13.2561 58.1845 13.7041C58.9781 14.1393 59.5925 14.7601 60.0277 15.5665C60.4757 16.3601 60.6997 17.2817 60.6997 18.3313ZM55.5157 14.9521C54.7477 14.9521 54.0949 15.1825 53.5573 15.6433C53.0325 16.0913 52.7125 16.6929 52.5973 17.4481H58.4149C58.3125 16.7057 57.9989 16.1041 57.4741 15.6433C56.9493 15.1825 56.2965 14.9521 55.5157 14.9521Z" fill="#D8DDE2"/>
<path d="M66.1731 23.5345C65.3411 23.5345 64.5283 23.4257 63.7347 23.2081C62.9411 22.9905 62.3075 22.7153 61.8339 22.3825L62.7555 20.5585C63.2163 20.8657 63.7667 21.1153 64.4067 21.3073C65.0595 21.4865 65.6995 21.5761 66.3267 21.5761C67.7603 21.5761 68.4771 21.1985 68.4771 20.4433C68.4771 20.0849 68.2915 19.8353 67.9203 19.6945C67.5619 19.5537 66.9795 19.4193 66.1731 19.2913C65.3283 19.1633 64.6371 19.0161 64.0995 18.8497C63.5747 18.6833 63.1139 18.3953 62.7171 17.9857C62.3331 17.5633 62.1411 16.9809 62.1411 16.2385C62.1411 15.2657 62.5443 14.4913 63.3507 13.9153C64.1699 13.3265 65.2707 13.0321 66.6531 13.0321C67.3571 13.0321 68.0611 13.1153 68.7651 13.2817C69.4691 13.4353 70.0451 13.6465 70.4931 13.9153L69.5715 15.7393C68.7011 15.2273 67.7219 14.9713 66.6339 14.9713C65.9299 14.9713 65.3923 15.0801 65.0211 15.2977C64.6627 15.5025 64.4835 15.7777 64.4835 16.1233C64.4835 16.5073 64.6755 16.7825 65.0595 16.9489C65.4563 17.1025 66.0643 17.2497 66.8835 17.3905C67.7027 17.5185 68.3747 17.6657 68.8995 17.8321C69.4243 17.9985 69.8723 18.2801 70.2435 18.6769C70.6275 19.0737 70.8195 19.6369 70.8195 20.3665C70.8195 21.3265 70.4035 22.0945 69.5715 22.6705C68.7395 23.2465 67.6067 23.5345 66.1731 23.5345Z" fill="#D8DDE2"/>
<path d="M82.5247 18.3313C82.5247 18.4977 82.5119 18.7345 82.4863 19.0417H74.4415C74.5823 19.7969 74.9471 20.3985 75.5359 20.8465C76.1375 21.2817 76.8799 21.4993 77.7631 21.4993C78.8895 21.4993 79.8175 21.1281 80.5471 20.3857L81.8335 21.8641C81.3727 22.4145 80.7903 22.8305 80.0863 23.1121C79.3823 23.3937 78.5887 23.5345 77.7055 23.5345C76.5791 23.5345 75.5871 23.3105 74.7295 22.8625C73.8719 22.4145 73.2063 21.7937 72.7327 21.0001C72.2719 20.1937 72.0415 19.2849 72.0415 18.2737C72.0415 17.2753 72.2655 16.3793 72.7135 15.5857C73.1743 14.7793 73.8079 14.1521 74.6143 13.7041C75.4207 13.2561 76.3295 13.0321 77.3407 13.0321C78.3391 13.0321 79.2287 13.2561 80.0095 13.7041C80.8031 14.1393 81.4175 14.7601 81.8527 15.5665C82.3007 16.3601 82.5247 17.2817 82.5247 18.3313ZM77.3407 14.9521C76.5727 14.9521 75.9199 15.1825 75.3823 15.6433C74.8575 16.0913 74.5375 16.6929 74.4223 17.4481H80.2399C80.1375 16.7057 79.8239 16.1041 79.2991 15.6433C78.7743 15.1825 78.1215 14.9521 77.3407 14.9521Z" fill="#D8DDE2"/>
<path d="M89.534 23.5345C88.4716 23.5345 87.5181 23.3105 86.6733 22.8625C85.8285 22.4145 85.1693 21.7937 84.6957 21.0001C84.2221 20.1937 83.9853 19.2849 83.9853 18.2737C83.9853 17.2625 84.2221 16.3601 84.6957 15.5665C85.1693 14.7729 85.8221 14.1521 86.6541 13.7041C87.4989 13.2561 88.4588 13.0321 89.534 13.0321C90.5452 13.0321 91.4285 13.2369 92.1837 13.6465C92.9517 14.0561 93.5276 14.6449 93.9117 15.4129L92.0685 16.4881C91.774 16.0145 91.4029 15.6625 90.9549 15.4321C90.5197 15.1889 90.0397 15.0673 89.5149 15.0673C88.6189 15.0673 87.8764 15.3617 87.2877 15.9505C86.6989 16.5265 86.4044 17.3009 86.4044 18.2737C86.4044 19.2465 86.6925 20.0273 87.2685 20.6161C87.8573 21.1921 88.6061 21.4801 89.5149 21.4801C90.0397 21.4801 90.5197 21.3649 90.9549 21.1345C91.4029 20.8913 91.774 20.5329 92.0685 20.0593L93.9117 21.1345C93.5149 21.9025 92.9324 22.4977 92.1645 22.9201C91.4092 23.3297 90.5324 23.5345 89.534 23.5345Z" fill="#D8DDE2"/>
<path d="M105.913 13.1473V23.4001H103.628V22.0945C103.244 22.5553 102.764 22.9137 102.188 23.1697C101.612 23.4129 100.991 23.5345 100.326 23.5345C98.9559 23.5345 97.8743 23.1569 97.0807 22.4017C96.2999 21.6337 95.9095 20.5009 95.9095 19.0033V13.1473H98.3095V18.6769C98.3095 19.5985 98.5143 20.2897 98.9239 20.7505C99.3463 21.1985 99.9415 21.4225 100.709 21.4225C101.567 21.4225 102.245 21.1601 102.745 20.6353C103.257 20.0977 103.513 19.3297 103.513 18.3313V13.1473H105.913Z" fill="#D8DDE2"/>
<path d="M111.34 14.6449C112.031 13.5697 113.247 13.0321 114.988 13.0321V15.3169C114.783 15.2785 114.597 15.2593 114.431 15.2593C113.497 15.2593 112.767 15.5345 112.242 16.0849C111.717 16.6225 111.455 17.4033 111.455 18.4273V23.4001H109.055V13.1473H111.34V14.6449Z" fill="#D8DDE2"/>
<path d="M122.707 13.0321C123.705 13.0321 124.595 13.2497 125.376 13.6849C126.169 14.1201 126.79 14.7345 127.238 15.5281C127.686 16.3217 127.91 17.2369 127.91 18.2737C127.91 19.3105 127.686 20.2321 127.238 21.0385C126.79 21.8321 126.169 22.4465 125.376 22.8817C124.595 23.3169 123.705 23.5345 122.707 23.5345C122.003 23.5345 121.357 23.4129 120.768 23.1697C120.192 22.9265 119.705 22.5617 119.309 22.0753V23.4001H117.024V9.1537H119.424V14.3953C119.833 13.9473 120.313 13.6081 120.864 13.3777C121.427 13.1473 122.041 13.0321 122.707 13.0321ZM122.438 21.4801C123.321 21.4801 124.045 21.1857 124.608 20.5969C125.184 20.0081 125.472 19.2337 125.472 18.2737C125.472 17.3137 125.184 16.5393 124.608 15.9505C124.045 15.3617 123.321 15.0673 122.438 15.0673C121.862 15.0673 121.344 15.2017 120.883 15.4705C120.422 15.7265 120.057 16.0977 119.789 16.5841C119.52 17.0705 119.385 17.6337 119.385 18.2737C119.385 18.9137 119.52 19.4769 119.789 19.9633C120.057 20.4497 120.422 20.8273 120.883 21.0961C121.344 21.3521 121.862 21.4801 122.438 21.4801Z" fill="#D8DDE2"/>
</svg>
