<svg width="122" height="33" viewBox="0 0 122 33" fill="none" xmlns="http://www.w3.org/2000/svg">
<path fill-rule="evenodd" clip-rule="evenodd" d="M17.818 31.9902C21.2812 31.5859 24.5067 30.0246 26.9722 27.5591C29.4377 25.0936 30.999 21.8681 31.4033 18.4049H25.5828C25.2157 20.3269 24.2789 22.0941 22.8941 23.4766C21.5093 24.8591 19.7406 25.7931 17.818 26.1571V31.9902Z" fill="#D8DDE2"/>
<path fill-rule="evenodd" clip-rule="evenodd" d="M22.9882 2.76411L23.0249 2.74013C26.7911 0.576072 29.8365 -0.0602903 31.2544 1.35885C35.2656 5.36879 23.9541 17.8418 20.6032 21.1927C18.5881 23.2137 16.4525 25.1111 14.2083 26.8743V31.9864C12.404 31.7816 10.6508 31.2556 9.03172 30.4335L8.9951 30.4574C5.22884 32.6215 2.18481 33.2578 0.765671 31.8463C-1.1787 29.9019 1.09642 25.4261 2.17214 23.5789C1.35505 21.9578 0.829413 20.2056 0.619193 18.4024H6.45226C6.70733 19.7562 7.2469 21.0405 8.03523 22.1703C8.82355 23.3001 9.84271 24.2498 11.0253 24.9564C10.3524 25.445 9.66805 25.9097 8.95848 26.3452C7.91938 27.0056 6.84369 27.6293 5.7301 28.1911C4.85858 27.4193 4.07905 26.5496 3.40697 25.599C2.23278 27.8616 1.84138 29.5244 2.46509 30.1443C5.14302 32.7957 17.188 21.7318 19.169 19.7508C21.278 17.6446 23.2508 15.4061 25.0753 13.049C24.4741 11.5126 23.492 10.1543 22.2213 9.10183C20.9507 8.0494 19.4332 7.33744 17.8117 7.03289V1.19976C19.6164 1.4028 21.3698 1.92884 22.9882 2.75273V2.76411ZM28.613 7.59473C29.7872 5.33219 30.1786 3.66938 29.5549 3.04945C28.9312 2.42953 27.2823 2.82977 25.0185 4.00397C26.4102 4.99162 27.6253 6.20683 28.613 7.59852V7.59473Z" fill="#D8DDE2"/>
<path fill-rule="evenodd" clip-rule="evenodd" d="M14.2109 1.21113C10.7475 1.61573 7.52207 3.17727 5.05657 5.643C2.59107 8.10873 1.02981 11.3343 0.625533 14.7977H6.45866C6.82082 12.8755 7.7544 11.1071 9.13744 9.72387C10.5205 8.3406 12.2887 7.4067 14.2109 7.04422V1.21113Z" fill="#D8DDE2"/>
<path d="M58.421 20.3046C58.421 20.9788 58.2922 21.6152 58.0346 22.2137C57.7846 22.8046 57.4361 23.3235 56.9892 23.7705C56.5498 24.2099 56.0308 24.5584 55.4323 24.8159C54.8414 25.0659 54.2089 25.1909 53.5346 25.1909C52.9286 25.1909 52.3452 25.0849 51.7846 24.8728C51.2316 24.6606 50.7316 24.35 50.2846 23.9409C49.8376 24.35 49.3339 24.6606 48.7733 24.8728C48.2126 25.0849 47.6293 25.1909 47.0233 25.1909C46.349 25.1909 45.7126 25.0659 45.1142 24.8159C44.5233 24.5584 44.0043 24.2099 43.5573 23.7705C43.118 23.3235 42.7695 22.8046 42.5119 22.2137C42.2619 21.6152 42.1369 20.9788 42.1369 20.3046V8.66822H45.3983V20.3046C45.3983 20.5319 45.4399 20.7478 45.5233 20.9523C45.6066 21.1493 45.7202 21.3235 45.8642 21.475C46.0157 21.619 46.1899 21.7326 46.3869 21.8159C46.5839 21.8993 46.796 21.9409 47.0233 21.9409C47.2505 21.9409 47.4626 21.8993 47.6596 21.8159C47.8566 21.7326 48.027 21.619 48.171 21.475C48.3225 21.3235 48.4399 21.1493 48.5233 20.9523C48.6066 20.7478 48.6483 20.5319 48.6483 20.3046V8.66822H51.9096V20.3046C51.9096 20.5319 51.9513 20.7478 52.0346 20.9523C52.1179 21.1493 52.2316 21.3235 52.3755 21.475C52.527 21.619 52.7013 21.7326 52.8983 21.8159C53.0952 21.8993 53.3073 21.9409 53.5346 21.9409C53.7619 21.9409 53.974 21.8993 54.171 21.8159C54.3679 21.7326 54.5384 21.619 54.6823 21.475C54.8339 21.3235 54.9513 21.1493 55.0346 20.9523C55.1255 20.7478 55.171 20.5319 55.171 20.3046V8.66822H58.421V20.3046Z" fill="#D8DDE2"/>
<path d="M64.671 9.4864C64.671 9.77428 64.6142 10.0432 64.5005 10.2932C64.3945 10.5432 64.2467 10.7629 64.0573 10.9523C63.8679 11.1341 63.6445 11.2819 63.3869 11.3955C63.1369 11.5015 62.8679 11.5546 62.5801 11.5546C62.2922 11.5546 62.0195 11.5015 61.7619 11.3955C61.5119 11.2819 61.2922 11.1341 61.1028 10.9523C60.921 10.7629 60.7732 10.5432 60.6596 10.2932C60.5536 10.0432 60.5005 9.77428 60.5005 9.4864C60.5005 9.2061 60.5536 8.94094 60.6596 8.69094C60.7732 8.43337 60.921 8.21367 61.1028 8.03185C61.2922 7.84246 61.5119 7.69473 61.7619 7.58867C62.0195 7.47504 62.2922 7.41822 62.5801 7.41822C62.8679 7.41822 63.1369 7.47504 63.3869 7.58867C63.6445 7.69473 63.8679 7.84246 64.0573 8.03185C64.2467 8.21367 64.3945 8.43337 64.5005 8.69094C64.6142 8.94094 64.671 9.2061 64.671 9.4864ZM64.1369 24.9637H61.0119V12.7932H64.1369V24.9637Z" fill="#D8DDE2"/>
<path d="M73.1937 24.9637H66.1028V21.8728H73.1937C73.4058 21.8728 73.5876 21.797 73.7392 21.6455C73.8907 21.494 73.9664 21.3122 73.9664 21.1C73.9664 20.8803 73.8907 20.7364 73.7392 20.6682C73.5876 20.6 73.4058 20.5659 73.1937 20.5659H69.9664C69.4286 20.5659 68.9248 20.4637 68.4551 20.2591C67.9854 20.0546 67.5763 19.7781 67.2278 19.4296C66.8793 19.0735 66.6028 18.6606 66.3982 18.1909C66.2013 17.7212 66.1028 17.2175 66.1028 16.6796C66.1028 16.1417 66.2013 15.6379 66.3982 15.1682C66.6028 14.6985 66.8793 14.2894 67.2278 13.9409C67.5763 13.5925 67.9854 13.3197 68.4551 13.1228C68.9248 12.9182 69.4286 12.8159 69.9664 12.8159H76.2505V15.9069H69.9664C69.7543 15.9069 69.5725 15.9826 69.421 16.1341C69.2695 16.2856 69.1937 16.4675 69.1937 16.6796C69.1937 16.8993 69.2695 17.0887 69.421 17.2478C69.5725 17.3993 69.7543 17.475 69.9664 17.475H73.1937C73.724 17.475 74.224 17.5659 74.6937 17.7478C75.1634 17.922 75.5725 18.1682 75.921 18.4864C76.2695 18.8046 76.546 19.1872 76.7505 19.6341C76.9551 20.0811 77.0573 20.5697 77.0573 21.1C77.0573 21.6379 76.9551 22.1417 76.7505 22.6114C76.546 23.0735 76.2695 23.4826 75.921 23.8387C75.5725 24.1872 75.1634 24.4637 74.6937 24.6682C74.224 24.8652 73.724 24.9637 73.1937 24.9637Z" fill="#D8DDE2"/>
<path d="M81.8187 24.9637H78.7164V7.95231H81.8187V13.3273C82.1899 13.047 82.5725 12.85 82.9664 12.7364C83.3604 12.6152 83.7619 12.5546 84.171 12.5546C84.921 12.5546 85.6255 12.6985 86.2846 12.9864C86.9437 13.2667 87.5157 13.6569 88.0005 14.1569C88.4929 14.6493 88.8793 15.2288 89.1596 15.8955C89.4475 16.5546 89.5914 17.2591 89.5914 18.0091V24.9637H86.4664V18.0091H86.4892C86.4892 17.6909 86.4286 17.3917 86.3073 17.1114C86.1861 16.8235 86.0195 16.5735 85.8073 16.3614C85.5952 16.1493 85.349 15.9826 85.0687 15.8614C84.7884 15.7402 84.4892 15.6796 84.171 15.6796C83.8452 15.6796 83.5384 15.7402 83.2505 15.8614C82.9626 15.9826 82.7126 16.1493 82.5005 16.3614C82.2884 16.5735 82.1217 16.8235 82.0005 17.1114C81.8793 17.3917 81.8187 17.6909 81.8187 18.0091V24.9637Z" fill="#D8DDE2"/>
<path d="M96.6482 21.9864C96.7695 22.0243 96.8907 22.0508 97.0119 22.0659C97.1331 22.0735 97.2543 22.0773 97.3755 22.0773C97.6785 22.0773 97.9702 22.0356 98.2505 21.9523C98.5308 21.869 98.7922 21.7515 99.0346 21.6C99.2846 21.4409 99.5043 21.2515 99.6937 21.0319C99.8907 20.8046 100.05 20.5546 100.171 20.2819L102.444 22.5659C102.156 22.975 101.822 23.3425 101.444 23.6682C101.072 23.994 100.667 24.2705 100.228 24.4978C99.796 24.725 99.3376 24.8955 98.8528 25.0091C98.3755 25.1303 97.8831 25.1909 97.3755 25.1909C96.5194 25.1909 95.7126 25.0319 94.9551 24.7137C94.2051 24.3955 93.546 23.9523 92.9778 23.3841C92.4172 22.8159 91.974 22.1417 91.6482 21.3614C91.3225 20.5735 91.1596 19.7099 91.1596 18.7705C91.1596 17.8084 91.3225 16.9296 91.6482 16.1341C91.974 15.3387 92.4172 14.6606 92.9778 14.1C93.546 13.5394 94.2051 13.1038 94.9551 12.7932C95.7126 12.4826 96.5194 12.3273 97.3755 12.3273C97.8831 12.3273 98.3793 12.3879 98.8642 12.5091C99.349 12.6303 99.8073 12.8046 100.239 13.0319C100.679 13.2591 101.088 13.5394 101.466 13.8728C101.845 14.1985 102.179 14.5659 102.466 14.975L96.6482 21.9864ZM98.2392 15.5887C98.0952 15.5356 97.9513 15.5015 97.8073 15.4864C97.671 15.4712 97.527 15.4637 97.3755 15.4637C96.9513 15.4637 96.5498 15.5432 96.171 15.7023C95.7998 15.8538 95.474 16.0735 95.1937 16.3614C94.921 16.6493 94.7051 16.9978 94.546 17.4069C94.3869 17.8084 94.3073 18.2629 94.3073 18.7705C94.3073 18.8841 94.3111 19.0129 94.3187 19.1569C94.3338 19.3008 94.3528 19.4485 94.3755 19.6C94.4058 19.744 94.4399 19.8841 94.4778 20.0205C94.5157 20.1569 94.5649 20.2781 94.6255 20.3841L98.2392 15.5887Z" fill="#D8DDE2"/>
<path d="M107.16 24.9637H104.035V7.95231H107.16V24.9637Z" fill="#D8DDE2"/>
<path d="M112.66 29.6H109.535V12.7932H110.285L111.523 14.2591C111.804 13.994 112.11 13.744 112.444 13.5091C112.777 13.2743 113.122 13.0735 113.478 12.9069C113.841 12.7326 114.216 12.5962 114.603 12.4978C114.989 12.3993 115.379 12.35 115.773 12.35C116.629 12.35 117.432 12.5053 118.182 12.8159C118.94 13.119 119.599 13.5508 120.16 14.1114C120.728 14.672 121.175 15.35 121.501 16.1455C121.826 16.9334 121.989 17.8084 121.989 18.7705C121.989 19.7705 121.826 20.672 121.501 21.475C121.175 22.2705 120.728 22.9485 120.16 23.5091C119.599 24.0622 118.94 24.4864 118.182 24.7818C117.432 25.0773 116.629 25.225 115.773 25.225C115.501 25.225 115.228 25.1947 114.955 25.1341C114.69 25.0735 114.425 24.994 114.16 24.8955C113.902 24.7894 113.644 24.672 113.387 24.5432C113.137 24.4144 112.894 24.2819 112.66 24.1455V29.6ZM118.876 18.7705C118.876 18.2553 118.792 17.7932 118.626 17.3841C118.466 16.975 118.247 16.6303 117.966 16.35C117.686 16.0622 117.357 15.8425 116.978 15.6909C116.599 15.5394 116.197 15.4637 115.773 15.4637C115.349 15.4637 114.947 15.5394 114.569 15.6909C114.197 15.8425 113.872 16.0622 113.591 16.35C113.311 16.6303 113.088 16.975 112.921 17.3841C112.762 17.7932 112.682 18.2553 112.682 18.7705C112.682 19.2629 112.762 19.7137 112.921 20.1228C113.088 20.5319 113.311 20.8803 113.591 21.1682C113.872 21.4561 114.197 21.6796 114.569 21.8387C114.947 21.9978 115.349 22.0773 115.773 22.0773C116.197 22.0773 116.599 21.9978 116.978 21.8387C117.357 21.6796 117.686 21.4561 117.966 21.1682C118.247 20.8803 118.466 20.5319 118.626 20.1228C118.792 19.7137 118.876 19.2629 118.876 18.7705Z" fill="#D8DDE2"/>
</svg>
