<svg width="136" height="34" viewBox="0 0 136 34" fill="none" xmlns="http://www.w3.org/2000/svg">
<path fill-rule="evenodd" clip-rule="evenodd" d="M7.2361 29.3003L8.34218 28.6626L10.0776 27.668L12.8339 26.0943L15.593 27.668L17.3256 28.6626L18.4315 29.3003L19.5612 29.9468L22.3085 31.5323L23.1438 32.0062L23.9586 32.4713L25.6118 33.419V18.1904L22.3085 16.2919V27.7617L20.0729 26.4746L16.7784 24.5907L15.5223 23.8594L14.487 23.2744V4.36284H11.1836V23.7248L8.88926 25.0441L5.59773 26.9426L3.3034 28.2502V16.3153L0.0117188 18.202V33.4424L1.65311 32.4947L2.47682 32.0295L7.2361 29.3003ZM20.07 23.8477V0.946167H16.7755V21.9639L20.07 23.8477ZM8.89228 22.4027V7.77658H5.6006V24.3011L8.89228 22.4027Z" fill="#D8DDE2"/>
<path d="M39.5685 24.4001H42.4458L45.0981 15.2706H45.2072L47.8662 24.4001H50.7435L54.739 10.4365H51.514L49.2026 20.1592H49.0799L46.5367 10.4365H43.7753L41.2253 20.1388H41.1094L38.7981 10.4365H35.5731L39.5685 24.4001Z" fill="#D8DDE2"/>
<path d="M56.3191 24.4001H65.7555V21.966H59.2714V18.6319H65.2441V16.1979H59.2714V12.8706H65.7282V10.4365H56.3191V24.4001Z" fill="#D8DDE2"/>
<path d="M68.0753 24.4001H77.014V21.966H71.0276V10.4365H68.0753V24.4001Z" fill="#D8DDE2"/>
<path d="M76.3697 10.4365L81.4628 19.4638V24.4001H84.3947V19.4638L89.4878 10.4365H86.181L82.9969 16.4501H82.8606L79.6765 10.4365H76.3697Z" fill="#D8DDE2"/>
<path d="M91.4498 12.8706H95.7248V24.4001H98.643V12.8706H102.918V10.4365H91.4498V12.8706Z" fill="#D8DDE2"/>
<path d="M107.759 10.4365H104.807V24.4001H107.759V10.4365Z" fill="#D8DDE2"/>
<path d="M122.508 15.3251C122.12 12.1001 119.679 10.2456 116.447 10.2456C112.758 10.2456 109.942 12.8501 109.942 17.4183C109.942 21.9729 112.711 24.591 116.447 24.591C120.026 24.591 122.188 22.2115 122.508 19.641L119.522 19.6274C119.242 21.1206 118.07 21.9797 116.495 21.9797C114.374 21.9797 112.936 20.4047 112.936 17.4183C112.936 14.5138 114.354 12.8569 116.515 12.8569C118.131 12.8569 119.297 13.791 119.522 15.3251H122.508Z" fill="#D8DDE2"/>
<path d="M132.2 14.4524H135.03C134.989 11.9638 132.944 10.2456 129.834 10.2456C126.773 10.2456 124.53 11.9365 124.544 14.4729C124.537 16.5319 125.989 17.7115 128.348 18.2774L129.869 18.6592C131.389 19.0274 132.234 19.4638 132.241 20.4047C132.234 21.4274 131.266 22.1229 129.766 22.1229C128.232 22.1229 127.128 21.4138 127.032 20.016H124.175C124.25 23.0365 126.412 24.5979 129.8 24.5979C133.209 24.5979 135.214 22.9683 135.221 20.4115C135.214 18.0865 133.462 16.8524 131.034 16.3069L129.78 16.0069C128.566 15.7274 127.55 15.2774 127.571 14.2751C127.571 13.3751 128.369 12.7138 129.814 12.7138C131.225 12.7138 132.091 13.3547 132.2 14.4524Z" fill="#D8DDE2"/>
</svg>
